<?xml version="1.0" encoding="utf-8"?>
<!-- Svg Vector Icons : http://www.onlinewebfonts.com/icon -->
<!DOCTYPE svg PUBLIC "-//W3C//DTD SVG 1.1//EN" "http://www.w3.org/Graphics/SVG/1.1/DTD/svg11.dtd">
<svg version="1.1" xmlns="http://www.w3.org/2000/svg" xmlns:xlink="http://www.w3.org/1999/xlink" x="0px" y="0px" viewBox="0 0 256 256" enable-background="new 0 0 256 256" xml:space="preserve">
<metadata> Svg Vector Icons : http://www.onlinewebfonts.com/icon </metadata>
<g><g><g><path fill="#000000" d="M98.4,57.6l-0.1,18L54.2,94.5L10,113.4v7.3v7.3h7.4h7.4v36.9v36.9h-7.4H10v7.4v7.4h118h118v-7.4v-7.4h-7.4h-7.4v-51.6V98.5h7.4h7.4v-7.3v-7.3l-14.6-4.3l-14.7-4.4l-0.1-17.8l-0.1-17.8h-14.8H187v13.4v13.4l-1-0.3c-0.6-0.2-20.5-6.2-44.3-13.3l-43.2-13L98.4,57.6z M157.5,142.8v29.5h-14.8H128v-29.5v-29.5h14.8h14.8V142.8z M201.8,142.8v29.5H187h-14.8v-29.5v-29.5H187h14.8V142.8z M98.5,150.1v7.4H69H39.5v-7.4v-7.4H69h29.5V150.1z M98.5,179.6v7.4H69H39.5v-7.4v-7.4H69h29.5V179.6z"/></g></g></g>
</svg>