<?xml version="1.0" encoding="utf-8"?>
<!-- Svg Vector Icons : http://www.onlinewebfonts.com/icon -->
<!DOCTYPE svg PUBLIC "-//W3C//DTD SVG 1.1//EN" "http://www.w3.org/Graphics/SVG/1.1/DTD/svg11.dtd">
<svg version="1.1" xmlns="http://www.w3.org/2000/svg" xmlns:xlink="http://www.w3.org/1999/xlink" x="0px" y="0px" viewBox="0 0 256 256" enable-background="new 0 0 256 256" xml:space="preserve">
<metadata> Svg Vector Icons : http://www.onlinewebfonts.com/icon </metadata>
<g><g><g><path fill="#000000" d="M125.4,11c-7,3.7-13.3,18.7-18,42.2c-1,4.9-2,10.9-2.4,13.3c-0.4,2.5-0.7,4.5-0.8,4.5c-0.1,0-3.6-2.4-7.7-5.5C74.9,50.1,56.2,41.7,47.7,43.6c-4.8,1.1-6.7,3.8-6.7,9.6c0,8.9,7.6,23.9,21.9,43l4.9,6.7l-6.7,0.9c-21.8,2.9-40.2,8.5-47,14.3c-2.3,2-4.2,5.4-4.2,7.8c0,9.7,21.3,18.9,57.3,24.7l2.1,0.4l-4.9,6.4c-15,19.7-23.6,36.2-23.6,45.5c0,4.5,1,6.8,3.9,8.4c1.8,1.1,2.4,1.2,6.8,1c3.8-0.2,5.8-0.6,9.4-1.9c10-3.6,24.4-11.9,37.7-21.7c2-1.5,3.9-2.7,4.2-2.7c0.3,0,0.5,0.6,0.5,1.3c0,5,3.9,25.8,6.6,34.9c7.6,26.2,19.2,31.3,28.7,12.4c4.3-8.6,8.9-25.2,11.5-42.1c0.7-4.1,1.2-7.5,1.3-7.5c0.1-0.1,2.9,1.8,6.3,4.2c15.2,10.8,30.4,19.3,39.6,21.9c8.5,2.4,14.4,1.3,16.7-3c1.4-2.5,1.1-8.3-0.6-13.3c-3.1-8.9-10.1-21.1-19.9-34.3c-3-4-5.3-7.3-5.3-7.4c0-0.1,2-0.5,4.5-0.8c29.4-3.9,48-10.5,52-18.4c5.9-11.5-14.9-22-56.3-28.7l-2.2-0.4l4-5.1c12.2-15.9,21.4-31.6,23.8-40.5c3.7-13.8-3.3-19.1-18.5-14.1c-8.3,2.7-26.9,13.3-39.2,22.5c-2.4,1.7-3.4,2.2-3.7,1.7c-0.2-0.4-0.6-3-1-5.7c-0.3-2.8-1.2-8.2-1.8-12C144.4,20.7,135.3,5.8,125.4,11z M132.4,14.1c5.5,3.4,11.2,18.4,14.9,39.1c1.1,6.4,2.6,16.7,2.6,18.3c0,0.6-1.8,2.4-4.9,4.9c-2.7,2.2-7.7,6.2-10.9,9l-6,5l-6.3-5.2c-3.5-2.9-8.1-6.7-10.5-8.5l-4.2-3.3l0.3-2c3.9-25.8,8.6-43,14.2-51.9C125.5,13.4,128.7,11.8,132.4,14.1z M58.4,47.9c5.3,1.7,11,4.3,18,8.3c6.1,3.5,20.1,12.9,24.7,16.4l2.8,2.2L103,83c-0.5,4.5-1,10.2-1.2,12.8l-0.4,4.6l-6.9,0.4c-3.9,0.2-10.5,0.7-14.9,1.1l-7.9,0.7l-1.7-1.9c-2.7-3.1-10.7-14.1-15-21c-10-15.9-13.5-27.6-9.6-31.6c1.4-1.4,1.8-1.5,5.1-1.5C53.1,46.6,55.5,47,58.4,47.9z M210.4,48c2.1,2.1,2.4,4.5,1.1,9.7c-2.1,8.6-10.6,23.3-22.2,38.7c-3,3.8-5.6,7.2-6,7.5c-0.5,0.4-2.2,0.4-6.3-0.2c-3.1-0.4-9.1-1-13.3-1.4c-4.3-0.4-8-0.9-8.3-1.1c-0.3-0.2-0.5-1.8-0.5-3.7c0-1.9-0.4-7.5-0.8-12.6c-0.4-5-0.8-9.6-0.8-10.2c0-0.8,1.8-2.3,6.5-5.7c20.9-14.9,36.1-22.5,45.3-22.5C208.7,46.6,209.1,46.7,210.4,48z M150.7,78.8c0.5,3.9,1.3,15.2,1.3,18.9v3.7l-4.9-0.2c-7.1-0.3-8-0.6-12.5-4.9l-4-3.7l3-2.6c5-4.3,16.1-13.2,16.5-13.3C150.2,76.6,150.4,77.6,150.7,78.8z M117.4,85.6c4.1,3.4,7.6,6.4,7.8,6.7c0.2,0.3-1.5,2.1-3.8,4.1l-4.1,3.7l-6.4,0.3l-6.4,0.3l0.3-4.3c0.2-2.3,0.7-7.6,1.1-11.6c0.4-4,0.7-7.4,0.7-7.5C106.6,76.9,110,79.5,117.4,85.6z M131.4,97.7l2.9,2.7l-6,0.1c-3.3,0-6-0.2-6-0.5c0-0.5,5.1-5.1,5.7-5.1C128.3,94.9,129.8,96.2,131.4,97.7z M101,109.9l-0.2,6.4l-4.6,4.6l-4.6,4.6l-2.8-3c-4.2-4.6-14.6-16.7-14.6-17c0-0.2,2.4-0.5,5.5-0.7c7-0.5,16.5-1.1,19.4-1.2l2.2-0.1L101,109.9z M108.9,108.2l-4.6,4.6l-0.2-3.5c-0.3-5.8-0.3-5.7,4.8-5.7h4.5L108.9,108.2z M145.2,110.5l7.2,6.9V128v10.6l-7.3,7l-7.4,6.9l-9.9-0.2l-9.8-0.2l-7.2-6.9l-7.2-6.8V128l-0.1-10.4l7.3-7l7.3-7l9.9-0.1h9.9L145.2,110.5z M152.2,104.8c0.2,0.1,0.2,2,0.1,4.1l-0.2,3.9l-4.6-4.4L143,104l4.5,0.2C150,104.4,152.1,104.6,152.2,104.8z M162.9,105.4c5.7,0.5,17.2,1.8,17.4,2c0.2,0.2-7.2,8.8-13.8,16.2l-1.9,2.1l-4.6-4.7l-4.6-4.7v-5.8v-5.8l1.7,0.3C158,105,160.6,105.2,162.9,105.4z M75.5,112.1c3,3.6,7.4,8.6,9.7,11.2l4.2,4.7l-5.1,5.7c-2.8,3.2-6.7,7.6-8.5,9.9l-3.4,4.2l-3.3-0.3c-1.8-0.2-7.8-1.2-13.2-2.3c-21.1-4.2-35.2-9.5-40.3-15.2c-2.2-2.4-2.7-4.1-1.9-6.2c2.9-7.1,21.9-13.6,50.9-17.5c3-0.4,5.4-0.7,5.4-0.8S72.4,108.5,75.5,112.1z M194.4,109.4c25.2,4.3,45.4,12.1,48.1,18.5c1.5,3.7-1.3,7.5-7.7,10.8c-7.6,3.8-23,7.8-38.7,10.1c-10.8,1.6-9.6,1.9-14.8-4.4c-2.5-3-6.8-7.9-9.6-10.9l-5-5.5l5-5.5c2.7-3.1,6.7-7.6,8.8-10.1c3.2-3.9,4-4.5,5.1-4.4C186.2,108.1,190.2,108.7,194.4,109.4z M100.5,127.9v7l-3.4-3.4l-3.4-3.4l3.2-3.6c1.8-2,3.3-3.6,3.4-3.6C100.4,120.9,100.5,124,100.5,127.9z M159.2,124.5c1.6,1.7,2.8,3.3,2.8,3.4c-0.1,0.2-1.5,1.9-3.3,3.9l-3.3,3.6l-0.1-7c0-3.9,0.2-7,0.5-7S157.7,122.8,159.2,124.5z M96.1,135l4.4,4.4v5.9v5.8l-4.4-0.4c-6.9-0.6-20.2-2-20.5-2.2c-0.3-0.3,15.2-18,15.7-18C91.5,130.5,93.7,132.5,96.1,135z M170.2,136.5c8.8,9.9,11.7,13.6,11,14c-0.3,0.2-4.6,0.6-9.5,0.9c-4.9,0.3-10.7,0.7-12.9,0.8l-4,0.3l0.3-6.5l0.4-6.5l4.4-4.5c2.4-2.4,4.6-4.5,4.7-4.5C164.8,130.5,167.3,133.2,170.2,136.5z M112.5,151.8c-0.1,0.1-2.1,0.1-4.5-0.2l-4.4-0.4v-4.4v-4.4l4.6,4.6C110.7,149.6,112.7,151.7,112.5,151.8z M151.9,147.8v4.6h-4.7h-4.7l4.6-4.6c2.5-2.5,4.6-4.6,4.7-4.6C151.9,143.3,151.9,145.3,151.9,147.8z M82.5,152.6c3.7,0.4,8.4,0.9,10.7,1.1c2.2,0.2,4.9,0.4,5.9,0.6l1.8,0.3l0.4,7.2c0.2,4,0.7,10.1,1,13.7l0.6,6.5l-6.5,4.8c-13.2,9.5-27.9,18-36.7,21c-4.5,1.5-10.4,2.1-12.6,1.3c-3.3-1.3-4.1-6.4-1.9-12.8c3.3-9.9,13-25.9,25.1-41.1c2.6-3.3,3.1-3.7,4.3-3.5C75.3,151.8,78.9,152.2,82.5,152.6z M189.6,159.9c7,9.4,8.1,11,12,17.2c4.7,7.7,8.7,16.1,10,21.3c1.2,4.9,1,7.2-0.8,9.4c-1.7,2-6.2,2.2-12,0.6c-8.4-2.2-24.4-11.1-39.4-22l-6.6-4.8v-2.5c0-1.4,0.5-7.2,1-13l1-10.5l4.6-0.3c15.6-1,21.9-1.5,22.1-1.6c0.1-0.1,0.9-0.2,1.8-0.2C184.6,153.4,185.2,154,189.6,159.9z M116.1,155.3c0.6,0.1,3,2,5.3,4.2l4.3,4l-6.1,5.1c-9.2,7.7-13.4,11-13.7,10.8c-0.4-0.4-1.2-9.3-1.6-17.5l-0.4-7.2l5.5,0.3C112.6,154.9,115.5,155.1,116.1,155.3z M131.3,158.3c-1.7,1.5-3.2,2.8-3.3,2.8c-0.2,0-1.6-1.3-3.3-2.8l-3.1-2.7h6.4h6.4L131.3,158.3z M151.4,156.8c0,1.9-1.4,17.7-1.8,20.1l-0.3,1.9l-2.6-2.1c-1.5-1.1-5.7-4.6-9.5-7.7l-6.8-5.6l4.3-4l4.3-4l6.3-0.1h6.2V156.8L151.4,156.8z M133.1,169.8c2.6,2.2,7.3,6.1,10.3,8.5c3,2.4,5.4,4.5,5.4,4.8c0,0.3-0.5,3.5-1,7.2c-5.2,33.6-13.8,54.1-22.1,52.5c-1.9-0.4-5.1-3.5-7.1-6.9c-3-5.2-6.6-16.6-9-28.2c-1-4.9-3.6-21.6-3.6-23.3c0-0.5,3.1-3.4,7.3-6.7c4-3.3,8.8-7.3,10.8-9c2-1.7,3.7-3.1,3.8-3.1C128.2,165.6,130.5,167.5,133.1,169.8z"/><path fill="#000000" d="M123.1,111.4c-3,1-5.3,2.5-7.8,5.2c-4.3,4.7-5.5,10.2-3.6,16.5c1,3.2,1.5,4.1,4.3,6.9c2.7,2.7,3.7,3.3,6.9,4.3c6.7,2,12.9,0.5,17.6-4.6c3.6-3.8,4.6-6.5,4.6-11.7c0-3.6-0.2-4.8-1.3-7.2c-2.8-6-8.3-9.6-14.9-10C126.7,110.8,124.4,111,123.1,111.4z M134,115.2c4.6,2.4,7.6,6.6,8.1,11.4c1,9.3-7.7,17-16.8,15.1c-9.9-2-14.4-13.3-8.8-21.7c1.7-2.5,5.9-5.5,8.4-6C127.5,113.6,131.9,114.2,134,115.2z"/></g></g></g>
</svg>