<?xml version="1.0" encoding="utf-8"?>
<!-- Svg Vector Icons : http://www.onlinewebfonts.com/icon -->
<!DOCTYPE svg PUBLIC "-//W3C//DTD SVG 1.1//EN" "http://www.w3.org/Graphics/SVG/1.1/DTD/svg11.dtd">
<svg version="1.1" xmlns="http://www.w3.org/2000/svg" xmlns:xlink="http://www.w3.org/1999/xlink" x="0px" y="0px" viewBox="0 0 256 256" enable-background="new 0 0 256 256" xml:space="preserve">
<metadata> Svg Vector Icons : http://www.onlinewebfonts.com/icon </metadata>
<g><g><path fill="#000000" d="M66.1,101.6h20.7l-9.2,51.1h23.2l8.8-51.1h20.8l3.1-18.3H69.2L66.1,101.6L66.1,101.6z M166,129.5l-4-46.1h-23.2l11.6,69.3h23.2l36.7-69.3h-23L166,129.5L166,129.5z M165.8,206H91.3c-3.7,0-6.6,3-6.6,6.5c0,3.5,3,6.5,6.6,6.5h74.5c3.7,0,6.6-3,6.6-6.5C172.5,209,169.3,206,165.8,206z M238.2,37.1H17.8c-4.8,0-7.8,3-7.8,7.8v139.7c0,4.8,4.8,7.8,9.6,7.8h218.7c4.8,0,7.8-3,7.8-7.8V44.8C246,40.1,243.1,37.1,238.2,37.1z M234.4,176.9c0,2.4-1.5,3.9-3.9,3.9h-205c-2.4,0-3.9-1.5-3.9-3.9V52.4c0-2.4,1.5-3.9,3.9-3.9h205c2.4,0,3.9,1.5,3.9,3.9V176.9z"/></g></g>
</svg>